<mxfile host="app.diagrams.net" modified="2023-07-05T14:10:41.020Z" agent="Mozilla/5.0 (X11; Linux x86_64; rv:109.0) Gecko/20100101 Firefox/115.0" etag="4XpE3xUfltmotorJ2I7m" version="21.5.2" type="github">
  <diagram name="Pagina-1" id="6Qvpip5lyaRnyykEJ70X">
    <mxGraphModel dx="880" dy="485" grid="1" gridSize="10" guides="1" tooltips="1" connect="1" arrows="1" fold="1" page="1" pageScale="1" pageWidth="827" pageHeight="1169" math="0" shadow="0">
      <root>
        <mxCell id="0" />
        <mxCell id="1" parent="0" />
        <mxCell id="4FHccypXvu3wmMg91eBA-2" value="" style="edgeStyle=orthogonalEdgeStyle;rounded=0;orthogonalLoop=1;jettySize=auto;html=1;" edge="1" parent="1" source="Tt4dnvYdejF510NqnClx-1" target="4FHccypXvu3wmMg91eBA-1">
          <mxGeometry relative="1" as="geometry" />
        </mxCell>
        <mxCell id="Tt4dnvYdejF510NqnClx-1" value="wait_request" style="rounded=0;whiteSpace=wrap;html=1;" parent="1" vertex="1">
          <mxGeometry x="370" y="40" width="120" height="60" as="geometry" />
        </mxCell>
        <mxCell id="Tt4dnvYdejF510NqnClx-4" style="edgeStyle=orthogonalEdgeStyle;rounded=0;orthogonalLoop=1;jettySize=auto;html=1;entryX=0.5;entryY=0;entryDx=0;entryDy=0;" parent="1" source="Tt4dnvYdejF510NqnClx-2" target="Tt4dnvYdejF510NqnClx-5" edge="1">
          <mxGeometry relative="1" as="geometry">
            <mxPoint x="210" y="385" as="targetPoint" />
          </mxGeometry>
        </mxCell>
        <mxCell id="Tt4dnvYdejF510NqnClx-7" value="" style="edgeStyle=orthogonalEdgeStyle;rounded=0;orthogonalLoop=1;jettySize=auto;html=1;" parent="1" source="Tt4dnvYdejF510NqnClx-2" target="Tt4dnvYdejF510NqnClx-6" edge="1">
          <mxGeometry relative="1" as="geometry" />
        </mxCell>
        <mxCell id="Tt4dnvYdejF510NqnClx-2" value="&lt;div&gt;write&lt;/div&gt;&lt;div&gt;request&lt;br&gt;&lt;/div&gt;" style="rhombus;whiteSpace=wrap;html=1;" parent="1" vertex="1">
          <mxGeometry x="390" y="265" width="80" height="80" as="geometry" />
        </mxCell>
        <mxCell id="Tt4dnvYdejF510NqnClx-8" value="" style="edgeStyle=orthogonalEdgeStyle;rounded=0;orthogonalLoop=1;jettySize=auto;html=1;" parent="1" source="Tt4dnvYdejF510NqnClx-5" target="Tt4dnvYdejF510NqnClx-6" edge="1">
          <mxGeometry relative="1" as="geometry" />
        </mxCell>
        <mxCell id="Tt4dnvYdejF510NqnClx-5" value="Write register" style="rounded=0;whiteSpace=wrap;html=1;" parent="1" vertex="1">
          <mxGeometry x="180" y="405" width="120" height="60" as="geometry" />
        </mxCell>
        <mxCell id="Tt4dnvYdejF510NqnClx-9" style="edgeStyle=orthogonalEdgeStyle;rounded=0;orthogonalLoop=1;jettySize=auto;html=1;entryX=1;entryY=0.5;entryDx=0;entryDy=0;" parent="1" source="Tt4dnvYdejF510NqnClx-6" target="Tt4dnvYdejF510NqnClx-1" edge="1">
          <mxGeometry relative="1" as="geometry">
            <Array as="points">
              <mxPoint x="550" y="435" />
              <mxPoint x="550" y="70" />
            </Array>
          </mxGeometry>
        </mxCell>
        <mxCell id="Tt4dnvYdejF510NqnClx-11" value="" style="edgeStyle=orthogonalEdgeStyle;rounded=0;orthogonalLoop=1;jettySize=auto;html=1;" parent="1" source="Tt4dnvYdejF510NqnClx-6" target="Tt4dnvYdejF510NqnClx-10" edge="1">
          <mxGeometry relative="1" as="geometry" />
        </mxCell>
        <mxCell id="Tt4dnvYdejF510NqnClx-6" value="&lt;div&gt;read&lt;/div&gt;&lt;div&gt;request&lt;br&gt;&lt;/div&gt;" style="rhombus;whiteSpace=wrap;html=1;" parent="1" vertex="1">
          <mxGeometry x="390" y="395" width="80" height="80" as="geometry" />
        </mxCell>
        <mxCell id="Tt4dnvYdejF510NqnClx-10" value="Read register" style="rounded=0;whiteSpace=wrap;html=1;" parent="1" vertex="1">
          <mxGeometry x="370" y="525" width="120" height="60" as="geometry" />
        </mxCell>
        <mxCell id="Tt4dnvYdejF510NqnClx-14" style="edgeStyle=orthogonalEdgeStyle;rounded=0;orthogonalLoop=1;jettySize=auto;html=1;" parent="1" edge="1">
          <mxGeometry relative="1" as="geometry">
            <mxPoint x="550" y="435" as="targetPoint" />
            <mxPoint x="490" y="555" as="sourcePoint" />
            <Array as="points">
              <mxPoint x="490" y="555" />
              <mxPoint x="551" y="555" />
            </Array>
          </mxGeometry>
        </mxCell>
        <mxCell id="Tt4dnvYdejF510NqnClx-15" value="1" style="text;html=1;strokeColor=none;fillColor=none;align=center;verticalAlign=middle;whiteSpace=wrap;rounded=0;" parent="1" vertex="1">
          <mxGeometry x="360" y="275" width="20" height="30" as="geometry" />
        </mxCell>
        <mxCell id="Tt4dnvYdejF510NqnClx-16" value="0" style="text;html=1;strokeColor=none;fillColor=none;align=center;verticalAlign=middle;whiteSpace=wrap;rounded=0;" parent="1" vertex="1">
          <mxGeometry x="440" y="335" width="20" height="30" as="geometry" />
        </mxCell>
        <mxCell id="Tt4dnvYdejF510NqnClx-17" value="1" style="text;html=1;strokeColor=none;fillColor=none;align=center;verticalAlign=middle;whiteSpace=wrap;rounded=0;" parent="1" vertex="1">
          <mxGeometry x="440" y="475" width="20" height="30" as="geometry" />
        </mxCell>
        <mxCell id="Tt4dnvYdejF510NqnClx-18" value="0" style="text;html=1;strokeColor=none;fillColor=none;align=center;verticalAlign=middle;whiteSpace=wrap;rounded=0;" parent="1" vertex="1">
          <mxGeometry x="470" y="405" width="20" height="30" as="geometry" />
        </mxCell>
        <mxCell id="4FHccypXvu3wmMg91eBA-3" value="" style="edgeStyle=orthogonalEdgeStyle;rounded=0;orthogonalLoop=1;jettySize=auto;html=1;entryX=0.5;entryY=0;entryDx=0;entryDy=0;" edge="1" parent="1" source="4FHccypXvu3wmMg91eBA-1" target="Tt4dnvYdejF510NqnClx-2">
          <mxGeometry relative="1" as="geometry" />
        </mxCell>
        <mxCell id="4FHccypXvu3wmMg91eBA-4" style="edgeStyle=orthogonalEdgeStyle;rounded=0;orthogonalLoop=1;jettySize=auto;html=1;" edge="1" parent="1" source="4FHccypXvu3wmMg91eBA-1">
          <mxGeometry relative="1" as="geometry">
            <mxPoint x="550" y="180" as="targetPoint" />
          </mxGeometry>
        </mxCell>
        <mxCell id="4FHccypXvu3wmMg91eBA-1" value="Enable" style="rhombus;whiteSpace=wrap;html=1;" vertex="1" parent="1">
          <mxGeometry x="390" y="140" width="80" height="80" as="geometry" />
        </mxCell>
        <mxCell id="4FHccypXvu3wmMg91eBA-5" value="1" style="text;html=1;strokeColor=none;fillColor=none;align=center;verticalAlign=middle;whiteSpace=wrap;rounded=0;" vertex="1" parent="1">
          <mxGeometry x="440" y="230" width="20" height="30" as="geometry" />
        </mxCell>
        <mxCell id="4FHccypXvu3wmMg91eBA-6" value="0" style="text;html=1;strokeColor=none;fillColor=none;align=center;verticalAlign=middle;whiteSpace=wrap;rounded=0;" vertex="1" parent="1">
          <mxGeometry x="470" y="140" width="20" height="30" as="geometry" />
        </mxCell>
      </root>
    </mxGraphModel>
  </diagram>
</mxfile>
